<svg xmlns="http://www.w3.org/2000/svg" width="13.286" height="13.286" viewBox="0 0 13.286 13.286"><defs><style>.a{fill:#333132;}</style></defs><path class="a" d="M1.946,1.946l-.882-.882A.623.623,0,0,0,0,1.5V4.359a.621.621,0,0,0,.623.623H3.48a.624.624,0,0,0,.441-1.064l-.8-.8A4.981,4.981,0,1,1,3.8,10.732a.831.831,0,0,0-.952,1.362,6.645,6.645,0,1,0-.9-10.149Zm4.7,1.375a.621.621,0,0,0-.623.623v2.7a.622.622,0,0,0,.182.441L8.07,8.952a.622.622,0,0,0,.88-.88L7.263,6.386V3.944a.621.621,0,0,0-.623-.623Z"/></svg>