<svg xmlns="http://www.w3.org/2000/svg" width="35.146" height="46.861" viewBox="0 0 35.146 46.861"><defs><style>.a{fill:#7d1d44;}.b{fill:#fff;}</style></defs><g transform="translate(-786.658 -475)"><path class="a" d="M35.146,17.573c0,10.251-17.573,29.288-17.573,29.288S0,27.824,0,17.573a17.573,17.573,0,0,1,35.146,0Z" transform="translate(786.658 475)"/><path class="b" d="M2.417,2.417l-1.1-1.1A.774.774,0,0,0,0,1.866V5.414a.772.772,0,0,0,.773.773H4.322a.774.774,0,0,0,.548-1.321l-.993-.993a6.187,6.187,0,1,1,.838,9.455,1.032,1.032,0,0,0-1.183,1.692,8.252,8.252,0,1,0-1.115-12.6ZM8.25,4.125a.772.772,0,0,0-.773.773V8.25A.773.773,0,0,0,7.7,8.8l2.32,2.32a.772.772,0,0,0,1.092-1.092L9.02,7.931V4.9a.772.772,0,0,0-.773-.773Z" transform="translate(795.981 484.471)"/></g></svg>