<svg xmlns="http://www.w3.org/2000/svg" width="11.95" height="17.072" viewBox="0 0 11.95 17.072"><defs><style>.a{fill:#333132;}</style></defs><path class="a" d="M43.478,17.076H33.235a.569.569,0,0,1-.569-.569V.573A.569.569,0,0,1,33.235,0H43.478a.569.569,0,0,1,.569.569V4.556a.569.569,0,0,1,.569.569v6.829a.569.569,0,0,1-.569.569v3.983a.569.569,0,0,1-.569.569ZM42.909,4.556V1.142H40.633V4.556Zm0,7.967H40.633v3.414h2.276Zm-3.414,0a.569.569,0,0,1-.569-.569V5.126a.569.569,0,0,1,.569-.569V1.142H37.218v14.8h2.276ZM36.08,1.142H33.8v14.8H36.08Zm7.4,4.553H40.064v5.69h3.414ZM42.34,8.672V9.678a.569.569,0,1,1-1.138,0V8.672a1.138,1.138,0,1,1,1.138,0Z" transform="translate(-32.666 -0.004)"/></svg>