<svg xmlns="http://www.w3.org/2000/svg" width="35.146" height="46.861" viewBox="0 0 35.146 46.861"><defs><style>.a{fill:#65107d;}.b{fill:#fff;}</style></defs><g transform="translate(-686.658 -358)"><path class="a" d="M35.146,17.573c0,10.251-17.573,29.288-17.573,29.288S0,27.824,0,17.573a17.573,17.573,0,0,1,35.146,0Z" transform="translate(686.658 358)"/><path class="b" d="M43.724,17.464H33.248a.582.582,0,0,1-.582-.582V.586A.582.582,0,0,1,33.248,0H43.724a.582.582,0,0,1,.582.582V4.66a.582.582,0,0,1,.582.582v6.984a.582.582,0,0,1-.582.582v4.074a.582.582,0,0,1-.582.582Zm-.582-12.8V1.168H40.814V4.66Zm0,8.148H40.814V16.3h2.328Zm-3.492,0a.582.582,0,0,1-.582-.582V5.242a.582.582,0,0,1,.582-.582V1.168H37.322V16.3H39.65ZM36.158,1.168H33.83V16.3h2.328Zm7.566,4.656H40.232v5.82h3.492ZM42.56,8.869V9.9a.582.582,0,1,1-1.164,0V8.869a1.164,1.164,0,1,1,1.164,0Z" transform="translate(665.454 366.849)"/></g></svg>