<svg xmlns="http://www.w3.org/2000/svg" width="35.146" height="46.861" viewBox="0 0 35.146 46.861"><defs><style>.a{fill:#c97c38;}.b{fill:#fff;}</style></defs><g transform="translate(-623.658 -559)"><path class="a" d="M35.146,17.573c0,10.251-17.573,29.288-17.573,29.288S0,27.824,0,17.573a17.573,17.573,0,0,1,35.146,0Z" transform="translate(623.658 559)"/><path class="b" d="M19.223,1.807A.983.983,0,1,0,18.015.255L13.589,3.7,11.376,5.418l-.267.209-.947-1.211a.494.494,0,0,0-.864.175L8.914,6.014l2.425,3.1,1.475-.028a.492.492,0,0,0,.378-.793L12.32,7.173l.264-.206L14.8,5.246,19.223,1.8ZM.447,15.65c1.149.086,6.049.369,7.754-.965,1.773-1.386,2.36-4.964,2.36-4.964L8.143,6.62s-3.614-.3-5.388,1.091a6.65,6.65,0,0,0-1.706,2.908.238.238,0,0,0,.338.289l1.2-.627a.29.29,0,0,1,.369.08.3.3,0,0,1-.012.378L.683,13.274a2.82,2.82,0,0,0-.676,1.355c-.028.148-.049.274-.068.372a.55.55,0,0,0,.111.433.553.553,0,0,0,.393.215Z" transform="translate(631.464 569.706)"/></g></svg>