<svg xmlns="http://www.w3.org/2000/svg" width="16.148" height="12.877" viewBox="0 0 16.148 12.877"><defs><style>.a{fill:#333132;}</style></defs><path class="a" d="M15.767,1.491A.807.807,0,1,0,14.775.217L11.142,3.043,9.326,4.456l-.219.172-.777-.994a.405.405,0,0,0-.709.144L7.3,4.945,9.3,7.489l1.211-.023a.4.4,0,0,0,.31-.651L10.1,5.9l.217-.169,1.817-1.413,3.633-2.826ZM.354,12.855c.944.071,4.965.3,6.365-.792,1.456-1.138,1.938-4.075,1.938-4.075L6.672,5.442S3.7,5.2,2.249,6.338a5.458,5.458,0,0,0-1.4,2.387.2.2,0,0,0,.278.237l.981-.515a.238.238,0,0,1,.3.066.244.244,0,0,1-.01.31L.549,10.9a2.315,2.315,0,0,0-.555,1.113c-.023.121-.04.225-.056.305a.451.451,0,0,0,.091.356.454.454,0,0,0,.323.177Z" transform="translate(0.069 -0.047)"/></svg>